<svg width="102" height="26" fill="none" xmlns="http://www.w3.org/2000/svg"><path d="M15.583 12.3a4.9 4.9 0 01.65-2.378 4.968 4.968 0 011.726-1.773 5.094 5.094 0 00-1.755-1.551 5.141 5.141 0 00-2.27-.607c-1.693-.176-3.334 1.005-4.197 1.005-.88 0-2.208-.988-3.639-.958a5.392 5.392 0 00-2.617.774 5.335 5.335 0 00-1.893 1.953c-1.95 3.349-.495 8.27 1.373 10.976.934 1.326 2.027 2.806 3.456 2.754 1.399-.058 1.92-.885 3.61-.885 1.672 0 2.162.885 3.62.851 1.501-.024 2.447-1.33 3.348-2.669a10.926 10.926 0 001.532-3.092 4.813 4.813 0 01-2.14-1.76 4.753 4.753 0 01-.804-2.64zm-2.754-8.09A4.846 4.846 0 0013.952.72a5.013 5.013 0 00-3.234 1.66 4.627 4.627 0 00-1.153 3.36 4.162 4.162 0 001.809-.393 4.128 4.128 0 001.455-1.137zm20.434 14.93H28.49l-1.146 3.356h-2.022l4.521-12.418h2.1l4.521 12.418h-2.056l-1.145-3.356zm-4.279-1.55h3.784l-1.865-5.446h-.052l-1.867 5.447zm17.244.38c0 2.813-1.518 4.621-3.81 4.621a3.116 3.116 0 01-1.666-.383 3.082 3.082 0 01-1.206-1.201h-.044v4.484h-1.874V13.443h1.814v1.505h.035a3.226 3.226 0 011.23-1.198 3.26 3.26 0 011.677-.402c2.317 0 3.844 1.816 3.844 4.622zm-1.926 0c0-1.833-.955-3.038-2.413-3.038-1.431 0-2.395 1.23-2.395 3.038 0 1.824.964 3.046 2.395 3.046 1.458 0 2.413-1.196 2.413-3.046zm11.974 0c0 2.813-1.518 4.621-3.81 4.621a3.116 3.116 0 01-1.666-.383 3.082 3.082 0 01-1.206-1.201h-.044v4.484h-1.873V13.443h1.813v1.505h.035a3.227 3.227 0 011.23-1.198 3.26 3.26 0 011.677-.402c2.317 0 3.844 1.816 3.844 4.622zm-1.926 0c0-1.833-.955-3.038-2.413-3.038-1.431 0-2.394 1.23-2.394 3.038 0 1.824.963 3.046 2.394 3.046 1.458 0 2.413-1.196 2.413-3.046zm8.567 1.066c.139 1.232 1.345 2.04 2.994 2.04 1.58 0 2.716-.808 2.716-1.919 0-.964-.686-1.54-2.309-1.936l-1.622-.388c-2.3-.55-3.367-1.617-3.367-3.348 0-2.142 1.883-3.614 4.556-3.614 2.646 0 4.46 1.472 4.521 3.614h-1.892c-.113-1.239-1.146-1.987-2.655-1.987-1.51 0-2.543.757-2.543 1.859 0 .877.66 1.394 2.274 1.79l1.38.335c2.568.603 3.636 1.626 3.636 3.443 0 2.323-1.866 3.778-4.834 3.778-2.777 0-4.652-1.42-4.773-3.667h1.918zM74.65 11.3v2.142h1.736v1.472H74.65v4.991c0 .776.348 1.137 1.11 1.137a6.03 6.03 0 00.617-.043v1.463a5.181 5.181 0 01-1.04.086c-1.849 0-2.57-.689-2.57-2.444v-5.19H71.44v-1.472h1.327V11.3h1.883zm2.742 6.67c0-2.849 1.691-4.639 4.33-4.639 2.646 0 4.33 1.79 4.33 4.639 0 2.856-1.675 4.638-4.33 4.638-2.655 0-4.33-1.782-4.33-4.638zm6.75 0c0-1.954-.902-3.108-2.42-3.108-1.519 0-2.421 1.162-2.421 3.108 0 1.962.902 3.106 2.42 3.106 1.519 0 2.422-1.144 2.422-3.106zm3.455-4.527h1.788v1.54h.043c.12-.48.405-.906.805-1.204.4-.298.891-.45 1.39-.431.217-.001.432.022.643.07v1.737a2.639 2.639 0 00-.842-.112 1.901 1.901 0 00-1.46.596 1.87 1.87 0 00-.493 1.487v5.37h-1.874v-9.053zm13.309 6.394c-.252 1.643-1.866 2.771-3.931 2.771-2.656 0-4.304-1.764-4.304-4.595 0-2.84 1.657-4.682 4.225-4.682 2.526 0 4.114 1.72 4.114 4.466v.637h-6.448v.112a2.339 2.339 0 00.645 1.832 2.378 2.378 0 001.811.732c.443.041.887-.06 1.267-.29.38-.23.675-.574.841-.983h1.78zm-6.335-2.702h4.564a2.16 2.16 0 00-.613-1.634 2.198 2.198 0 00-1.626-.664 2.33 2.33 0 00-1.645.668 2.291 2.291 0 00-.68 1.63zM28.75.73a2.682 2.682 0 012.122.819 2.636 2.636 0 01.708 2.147c0 1.906-1.038 3.002-2.83 3.002h-2.174V.73h2.173zm-1.24 5.124h1.135a1.906 1.906 0 001.507-.605 1.872 1.872 0 00.477-1.541 1.867 1.867 0 00-.485-1.531 1.897 1.897 0 00-1.5-.603h-1.133v4.28zm5.126-1.409a2.116 2.116 0 01.55-1.638 2.15 2.15 0 011.591-.699 2.166 2.166 0 011.592.699 2.13 2.13 0 01.55 1.638 2.116 2.116 0 01-.548 1.64 2.151 2.151 0 01-1.594.7 2.167 2.167 0 01-1.593-.7 2.13 2.13 0 01-.548-1.64zm3.36 0c0-.977-.441-1.547-1.217-1.547-.78 0-1.217.57-1.217 1.547 0 .983.438 1.55 1.217 1.55.776 0 1.218-.57 1.218-1.55zm6.615 2.253h-.93l-.938-3.317h-.07l-.935 3.317h-.92l-1.252-4.503h.908l.814 3.436h.067l.933-3.436h.86l.933 3.436h.071l.81-3.436h.896L42.61 6.698zm2.299-4.503h.863v.715h.067a1.365 1.365 0 011.355-.802 1.488 1.488 0 011.192.463 1.463 1.463 0 01.38 1.212v2.915h-.896V4.006c0-.724-.318-1.084-.98-1.084a1.05 1.05 0 00-.807.324 1.032 1.032 0 00-.277.818v2.634h-.897V2.195zM50.195.437h.896v6.26h-.896V.438zm2.141 4.007a2.116 2.116 0 01.55-1.638 2.15 2.15 0 011.592-.698 2.166 2.166 0 011.592.698 2.13 2.13 0 01.55 1.638 2.118 2.118 0 01-.549 1.64 2.15 2.15 0 01-1.593.7 2.167 2.167 0 01-1.593-.7 2.13 2.13 0 01-.549-1.64zm3.361 0c0-.976-.442-1.546-1.218-1.546-.779 0-1.217.57-1.217 1.546 0 .984.438 1.55 1.217 1.55.776 0 1.218-.57 1.218-1.55zm1.866.98c0-.81.608-1.278 1.688-1.344l1.23-.07v-.39c0-.475-.317-.744-.93-.744-.5 0-.846.182-.945.5h-.868c.092-.773.825-1.27 1.855-1.27 1.139 0 1.78.563 1.78 1.514v3.077h-.862v-.633h-.07a1.523 1.523 0 01-1.365.707 1.383 1.383 0 01-1.058-.34 1.36 1.36 0 01-.455-1.008zm2.918-.384v-.377l-1.108.07c-.626.042-.91.253-.91.65 0 .405.355.64.843.64a1.08 1.08 0 00.798-.244 1.062 1.062 0 00.377-.74zm2.07-.596c0-1.422.738-2.324 1.885-2.324a1.507 1.507 0 011.393.79h.067V.437h.896v6.26h-.86v-.71h-.07a1.587 1.587 0 01-1.426.786c-1.155-.001-1.885-.902-1.885-2.329zm.926 0c0 .955.454 1.53 1.213 1.53.755 0 1.222-.583 1.222-1.526 0-.938-.471-1.53-1.222-1.53-.754 0-1.213.58-1.213 1.526zm7.023 0a2.116 2.116 0 01.549-1.638 2.15 2.15 0 011.591-.698 2.166 2.166 0 011.592.698 2.13 2.13 0 01.55 1.638 2.116 2.116 0 01-.548 1.64 2.15 2.15 0 01-1.594.7 2.167 2.167 0 01-1.593-.7 2.13 2.13 0 01-.548-1.64zm3.36 0c0-.976-.442-1.547-1.218-1.547-.779 0-1.217.571-1.217 1.547 0 .984.438 1.55 1.217 1.55.776 0 1.218-.57 1.218-1.55zm2.124-2.249h.863v.715h.067a1.364 1.364 0 011.355-.802 1.488 1.488 0 011.191.463 1.463 1.463 0 01.38 1.212v2.915h-.896V4.006c0-.724-.317-1.084-.98-1.084a1.05 1.05 0 00-.806.324 1.032 1.032 0 00-.278.818v2.634h-.896V2.195zm8.92-1.121v1.141h.983v.749h-.983v2.315c0 .472.196.679.642.679.114 0 .228-.008.341-.021v.74c-.16.029-.324.044-.487.046-.997 0-1.393-.348-1.393-1.216V2.964h-.721v-.749h.72V1.074h.898zm2.207-.637H88v2.481h.07a1.406 1.406 0 011.384-.807 1.507 1.507 0 011.18.475 1.48 1.48 0 01.385 1.205v2.907h-.897V4.01c0-.72-.338-1.084-.971-1.084a1.069 1.069 0 00-.84.307 1.05 1.05 0 00-.304.835v2.63h-.896V.437zm9.133 5.045a1.829 1.829 0 01-.746 1.006c-.36.238-.792.343-1.222.297a2.078 2.078 0 01-1.591-.68 2.04 2.04 0 01-.506-1.644 2.058 2.058 0 01.505-1.65 2.094 2.094 0 011.588-.703c1.264 0 2.026.856 2.026 2.27v.31H93.09v.05a1.181 1.181 0 00.317.91 1.201 1.201 0 00.893.38 1.096 1.096 0 001.08-.546h.863zM93.09 4.031h2.294a1.078 1.078 0 00-.299-.829 1.095 1.095 0 00-.819-.338 1.17 1.17 0 00-.836.338 1.152 1.152 0 00-.34.829z" fill="#fff"/></svg>