<svg width="24" height="24" fill="none" xmlns="http://www.w3.org/2000/svg"><path fill-rule="evenodd" clip-rule="evenodd" d="M16.032 3H7.967A4.973 4.973 0 003 7.967v8.066A4.973 4.973 0 007.967 21h8.066A4.973 4.973 0 0021 16.033V7.967A4.973 4.973 0 0016.032 3zM20 16.358A3.646 3.646 0 0116.358 20H7.642A3.646 3.646 0 014 16.358V7.642A3.646 3.646 0 017.642 4h8.716A3.646 3.646 0 0120 7.642v8.716zM7.362 12A4.643 4.643 0 0112 7.362 4.643 4.643 0 0116.638 12 4.643 4.643 0 0112 16.638 4.643 4.643 0 017.362 12zm9.073-6.166a.803.803 0 011.13 0 .803.803 0 010 1.132A.808.808 0 0117 7.2a.806.806 0 01-.565-.234.807.807 0 01-.235-.566c0-.21.086-.417.235-.566z" fill="#fff"/></svg>