<svg width="102" height="26" viewBox="0 0 102 26" fill="none" xmlns="http://www.w3.org/2000/svg">
<path d="M15.583 12.3006C15.5938 11.4659 15.8174 10.6475 16.2328 9.92158C16.6483 9.19563 17.2422 8.58569 17.9592 8.14851C17.5037 7.50335 16.9028 6.97241 16.2042 6.59786C15.5055 6.22331 14.7285 6.01546 13.9347 5.99083C12.2414 5.81457 10.5999 6.99566 9.73701 6.99566C8.85745 6.99566 7.52894 6.00833 6.09835 6.03752C5.17301 6.06717 4.27119 6.33403 3.48076 6.81208C2.69033 7.29014 2.03825 7.9631 1.58805 8.76539C-0.362107 12.1138 1.09254 17.0349 2.96063 19.7415C3.89528 21.0668 4.98761 22.5473 6.4169 22.4948C7.81555 22.4372 8.33792 21.6103 10.0262 21.6103C11.6988 21.6103 12.1889 22.4948 13.6472 22.4614C15.148 22.4372 16.0936 21.1302 16.9955 19.7923C17.667 18.8479 18.1838 17.8042 18.5266 16.6997C17.6547 16.334 16.9106 15.7218 16.3871 14.9395C15.8636 14.1572 15.584 13.2394 15.583 12.3006Z" fill="white"/>
<path d="M12.8286 4.21083C13.6469 3.23663 14.05 1.98445 13.9524 0.720215C12.7022 0.850435 11.5474 1.44299 10.718 2.37982C10.3125 2.83749 10.0019 3.36993 9.80405 3.9467C9.60616 4.52347 9.52484 5.13326 9.56474 5.74121C10.1901 5.7476 10.8087 5.61319 11.374 5.3481C11.9394 5.08301 12.4367 4.69416 12.8286 4.21083Z" fill="white"/>
<path d="M33.2631 19.1397H28.4901L27.3439 22.4961H25.3223L29.8431 10.0781H31.9435L36.4644 22.4961H34.4083L33.2631 19.1397ZM28.9844 17.5908H32.7678L30.9027 12.1436H30.8505L28.9844 17.5908Z" fill="white"/>
<path d="M46.228 17.9699C46.228 20.7834 44.7096 22.591 42.4181 22.591C41.8377 22.6211 41.2604 22.4885 40.7524 22.2084C40.2444 21.9283 39.8262 21.5119 39.5457 21.007H39.5023V25.4914H37.6284V13.4426H39.4423V14.9485H39.4768C39.7702 14.446 40.1954 14.0318 40.7073 13.7499C41.2192 13.4681 41.7985 13.3291 42.3837 13.3479C44.7007 13.3479 46.228 15.1643 46.228 17.9699ZM44.3019 17.9699C44.3019 16.1369 43.3467 14.9319 41.8893 14.9319C40.4576 14.9319 39.4945 16.1623 39.4945 17.9699C39.4945 19.7942 40.4576 21.0158 41.8893 21.0158C43.3467 21.0158 44.3019 19.8196 44.3019 17.9699Z" fill="white"/>
<path d="M56.2761 17.9699C56.2761 20.7834 54.7577 22.591 52.4662 22.591C51.8858 22.6211 51.3085 22.4885 50.8005 22.2084C50.2925 21.9283 49.8743 21.5119 49.5938 21.007H49.5504V25.4914H47.6765V13.4426H49.4904V14.9484H49.5248C49.8182 14.446 50.2435 14.0318 50.7553 13.7499C51.2672 13.4681 51.8466 13.3291 52.4317 13.3479C54.7488 13.3479 56.2761 15.1643 56.2761 17.9699ZM54.35 17.9699C54.35 16.1369 53.3948 14.9318 51.9374 14.9318C50.5056 14.9318 49.5426 16.1623 49.5426 17.9699C49.5426 19.7942 50.5056 21.0158 51.9374 21.0158C53.3948 21.0158 54.35 19.8195 54.35 17.9699H54.35Z" fill="white"/>
<path d="M62.9172 19.0362C63.056 20.2676 64.2623 21.0762 65.9107 21.0762C67.4902 21.0762 68.6266 20.2676 68.6266 19.1572C68.6266 18.1934 67.9412 17.6162 66.3184 17.2207L64.6956 16.833C62.3963 16.2822 61.3288 15.2158 61.3288 13.4854C61.3288 11.3428 63.2116 9.87109 65.8851 9.87109C68.5311 9.87109 70.3449 11.3428 70.406 13.4854H68.5143C68.4011 12.2461 67.3681 11.4981 65.8585 11.4981C64.3489 11.4981 63.316 12.2549 63.316 13.3565C63.316 14.2344 63.9757 14.751 65.5897 15.1465L66.9693 15.4824C69.5384 16.0849 70.6059 17.1084 70.6059 18.9248C70.6059 21.248 68.7398 22.7031 65.7719 22.7031C62.9949 22.7031 61.12 21.2822 60.9989 19.0361L62.9172 19.0362Z" fill="white"/>
<path d="M74.6501 11.2998V13.4424H76.3862V14.9141H74.6501V19.9053C74.6501 20.6807 74.9977 21.042 75.7609 21.042C75.967 21.0384 76.1728 21.0241 76.3773 20.999V22.4619C76.0342 22.5255 75.6855 22.5543 75.3365 22.5478C73.4882 22.5478 72.7673 21.8593 72.7673 20.1035V14.9141H71.4399V13.4424H72.7673V11.2998H74.6501Z" fill="white"/>
<path d="M77.3916 17.9697C77.3916 15.1211 79.0833 13.3311 81.7214 13.3311C84.3684 13.3311 86.0522 15.1211 86.0522 17.9697C86.0522 20.8262 84.3772 22.6084 81.7214 22.6084C79.0666 22.6084 77.3916 20.8262 77.3916 17.9697ZM84.1429 17.9697C84.1429 16.0156 83.2399 14.8623 81.7214 14.8623C80.203 14.8623 79.301 16.0244 79.301 17.9697C79.301 19.9316 80.203 21.0762 81.7214 21.0762C83.2399 21.0762 84.1428 19.9316 84.1428 17.9697H84.1429Z" fill="white"/>
<path d="M87.5973 13.4425H89.3846V14.9835H89.4279C89.5489 14.5022 89.8332 14.0769 90.2331 13.779C90.633 13.4811 91.1241 13.3288 91.6239 13.3478C91.8398 13.347 92.0552 13.3703 92.2659 13.4171V15.1554C91.9933 15.0728 91.7089 15.0348 91.4239 15.0431C91.1517 15.0321 90.8803 15.0797 90.6284 15.1826C90.3764 15.2855 90.1499 15.4412 89.9644 15.6391C89.7789 15.837 89.6388 16.0724 89.5536 16.3291C89.4685 16.5857 89.4404 16.8576 89.4712 17.1261V22.4962H87.5973L87.5973 13.4425Z" fill="white"/>
<path d="M100.906 19.8369C100.654 21.4805 99.0397 22.6084 96.9748 22.6084C94.319 22.6084 92.6705 20.8437 92.6705 18.0127C92.6705 15.1729 94.3278 13.3311 96.896 13.3311C99.4218 13.3311 101.01 15.0518 101.01 17.7969V18.4336H94.5622V18.5459C94.5324 18.8791 94.5745 19.2148 94.6856 19.5306C94.7967 19.8464 94.9743 20.1352 95.2066 20.3778C95.4388 20.6203 95.7205 20.8111 96.0328 20.9374C96.3452 21.0637 96.681 21.1227 97.0181 21.1103C97.4609 21.1515 97.9053 21.0498 98.2852 20.8203C98.665 20.5909 98.9601 20.246 99.1264 19.8369L100.906 19.8369ZM94.571 17.1348H99.1352C99.1521 16.8352 99.1063 16.5354 99.0007 16.2541C98.8952 15.9729 98.7321 15.7164 98.5219 15.5006C98.3116 15.2849 98.0586 15.1145 97.7788 15.0003C97.4991 14.8861 97.1985 14.8305 96.896 14.8369C96.5908 14.8351 96.2883 14.8933 96.0059 15.008C95.7236 15.1227 95.4669 15.2918 95.2507 15.5054C95.0346 15.7191 94.8632 15.973 94.7466 16.2527C94.6299 16.5323 94.5703 16.8321 94.571 17.1348V17.1348Z" fill="white"/>
<path d="M28.7493 0.730892C29.1421 0.702933 29.5364 0.761793 29.9035 0.903226C30.2707 1.04466 30.6016 1.26514 30.8724 1.54876C31.1433 1.83239 31.3472 2.17209 31.4697 2.54336C31.5921 2.91463 31.6299 3.30822 31.5804 3.69573C31.5804 5.60198 30.5415 6.69773 28.7493 6.69773H26.576V0.730892H28.7493ZM27.5105 5.85389H28.6449C28.9256 5.87053 29.2066 5.82489 29.4673 5.72027C29.728 5.61566 29.9619 5.45471 30.1519 5.24914C30.342 5.04358 30.4834 4.79857 30.566 4.53195C30.6485 4.26533 30.6701 3.98382 30.6291 3.70789C30.6671 3.43306 30.6434 3.15329 30.5596 2.88862C30.4758 2.62396 30.3339 2.38096 30.1443 2.17703C29.9547 1.9731 29.7219 1.81329 29.4627 1.70905C29.2034 1.60481 28.9242 1.55873 28.6449 1.5741H27.5105V5.85389Z" fill="white"/>
<path d="M32.636 4.44453C32.6074 4.14861 32.6416 3.85005 32.7362 3.56798C32.8308 3.28591 32.9838 3.02657 33.1855 2.80658C33.3871 2.5866 33.6328 2.41084 33.9069 2.29056C34.1811 2.17028 34.4775 2.10815 34.7773 2.10815C35.077 2.10815 35.3735 2.17028 35.6476 2.29056C35.9217 2.41084 36.1675 2.5866 36.3691 2.80658C36.5707 3.02657 36.7237 3.28591 36.8183 3.56798C36.913 3.85005 36.9471 4.14861 36.9185 4.44453C36.9476 4.74075 36.9139 5.03974 36.8195 5.32226C36.7252 5.60479 36.5722 5.8646 36.3706 6.08502C36.1689 6.30543 35.923 6.48157 35.6486 6.6021C35.3742 6.72264 35.0774 6.7849 34.7773 6.7849C34.4772 6.7849 34.1804 6.72264 33.906 6.6021C33.6316 6.48157 33.3856 6.30543 33.184 6.08502C32.9823 5.8646 32.8294 5.60479 32.735 5.32226C32.6406 5.03974 32.6069 4.74075 32.636 4.44453ZM35.9968 4.44453C35.9968 3.46846 35.5547 2.89766 34.7787 2.89766C33.9998 2.89766 33.5617 3.46846 33.5617 4.44454C33.5617 5.42843 33.9999 5.99483 34.7787 5.99483C35.5547 5.99482 35.9968 5.42451 35.9968 4.44453Z" fill="white"/>
<path d="M42.6113 6.69775H41.6817L40.7433 3.38134H40.6724L39.7379 6.69775H38.8171L37.5656 2.19482H38.4745L39.2878 5.63082H39.3548L40.2883 2.19482H41.148L42.0815 5.63082H42.1524L42.9618 2.19482H43.8579L42.6113 6.69775Z" fill="white"/>
<path d="M44.9105 2.19487H45.7731V2.9102H45.8401C45.9537 2.65328 46.1453 2.43791 46.3882 2.2941C46.6311 2.15029 46.9131 2.08522 47.1951 2.10795C47.416 2.09147 47.6379 2.12451 47.8442 2.20461C48.0505 2.2847 48.236 2.40981 48.3869 2.57065C48.5378 2.73149 48.6503 2.92396 48.7161 3.13378C48.7818 3.3436 48.7991 3.5654 48.7667 3.78275V6.69775H47.8706V4.00591C47.8706 3.28228 47.5535 2.92241 46.8908 2.92241C46.7408 2.91548 46.5911 2.9408 46.4519 2.99663C46.3126 3.05246 46.1873 3.13748 46.0843 3.24587C45.9813 3.35425 45.9032 3.48343 45.8552 3.62457C45.8073 3.7657 45.7907 3.91544 45.8066 4.06352V6.6978H44.9105L44.9105 2.19487Z" fill="white"/>
<path d="M50.1946 0.437012H51.0907V6.69775H50.1946V0.437012Z" fill="white"/>
<path d="M52.3364 4.44437C52.3079 4.14843 52.342 3.84985 52.4367 3.56777C52.5313 3.28569 52.6844 3.02634 52.886 2.80635C53.0876 2.58636 53.3334 2.4106 53.6076 2.29032C53.8817 2.17004 54.1782 2.10791 54.4779 2.10791C54.7777 2.10791 55.0742 2.17004 55.3483 2.29032C55.6224 2.4106 55.8682 2.58636 56.0698 2.80635C56.2715 3.02634 56.4245 3.28569 56.5192 3.56777C56.6138 3.84985 56.648 4.14843 56.6195 4.44437C56.6485 4.74061 56.6147 5.03959 56.5203 5.32212C56.4259 5.60464 56.273 5.86445 56.0713 6.08486C55.8696 6.30527 55.6237 6.48139 55.3492 6.60192C55.0748 6.72245 54.778 6.78472 54.4779 6.78472C54.1778 6.78472 53.881 6.72245 53.6066 6.60192C53.3322 6.48139 53.0862 6.30527 52.8846 6.08486C52.6829 5.86445 52.5299 5.60464 52.4355 5.32212C52.3411 5.03959 52.3073 4.74061 52.3364 4.44437ZM55.6972 4.44437C55.6972 3.4683 55.2551 2.8975 54.4792 2.8975C53.7002 2.8975 53.2621 3.4683 53.2621 4.44438C53.2621 5.42827 53.7003 5.99467 54.4792 5.99467C55.2551 5.99466 55.6973 5.42435 55.6973 4.44437H55.6972Z" fill="white"/>
<path d="M57.5627 5.42431C57.5627 4.61376 58.1713 4.14648 59.2515 4.08007L60.4815 4.00976V3.62109C60.4815 3.1455 60.1644 2.87695 59.5519 2.87695C59.0517 2.87695 58.705 3.05908 58.6056 3.37744H57.738C57.8296 2.604 58.5632 2.10791 59.5932 2.10791C60.7316 2.10791 61.3736 2.66991 61.3736 3.62109V6.69775H60.511V6.06494H60.4401C60.2962 6.29193 60.0941 6.47698 59.8545 6.60119C59.6149 6.7254 59.3463 6.78432 59.0763 6.77194C58.8857 6.7916 58.693 6.77143 58.5107 6.71274C58.3285 6.65404 58.1606 6.55811 58.018 6.43114C57.8754 6.30417 57.7612 6.14898 57.6828 5.97556C57.6044 5.80215 57.5635 5.61436 57.5627 5.42431ZM60.4815 5.03954V4.66308L59.3727 4.73339C58.7474 4.77489 58.4638 4.98583 58.4638 5.3828C58.4638 5.78807 58.8183 6.02391 59.3057 6.02391C59.4486 6.03825 59.5928 6.02395 59.73 5.98186C59.8671 5.93977 59.9943 5.87075 60.104 5.77891C60.2137 5.68706 60.3037 5.57428 60.3685 5.44726C60.4333 5.32024 60.4718 5.18158 60.4815 5.03954Z" fill="white"/>
<path d="M62.5514 4.44435C62.5514 3.0215 63.289 2.12013 64.4362 2.12013C64.7199 2.10717 65.0015 2.17457 65.2481 2.31446C65.4947 2.45436 65.696 2.66096 65.8286 2.91013H65.8955V0.437012H66.7916V6.69775H65.9329V5.98632H65.862C65.7192 6.23381 65.5109 6.43785 65.2596 6.57633C65.0082 6.71481 64.7235 6.78246 64.4362 6.77196C63.2811 6.77201 62.5514 5.87062 62.5514 4.44435ZM63.4771 4.44435C63.4771 5.39943 63.931 5.97414 64.6902 5.97414C65.4455 5.97414 65.9123 5.39114 65.9123 4.44826C65.9123 3.50978 65.4406 2.91847 64.6902 2.91847C63.9359 2.91847 63.477 3.49708 63.477 4.44435H63.4771Z" fill="white"/>
<path d="M70.4991 4.44429C70.4706 4.14837 70.5047 3.8498 70.5994 3.56773C70.694 3.28566 70.847 3.02632 71.0486 2.80634C71.2502 2.58636 71.496 2.41059 71.7701 2.29032C72.0442 2.17004 72.3407 2.10791 72.6404 2.10791C72.9402 2.10791 73.2366 2.17004 73.5107 2.29032C73.7849 2.41059 74.0306 2.58636 74.2322 2.80634C74.4338 3.02632 74.5869 3.28566 74.6815 3.56773C74.7761 3.8498 74.8103 4.14837 74.7817 4.44429C74.8108 4.74051 74.7771 5.03949 74.6827 5.32202C74.5883 5.60454 74.4354 5.86436 74.2337 6.08477C74.0321 6.30519 73.7861 6.48132 73.5117 6.60186C73.2373 6.72239 72.9405 6.78466 72.6404 6.78466C72.3403 6.78466 72.0435 6.72239 71.7691 6.60186C71.4947 6.48132 71.2488 6.30519 71.0471 6.08477C70.8455 5.86436 70.6925 5.60454 70.5982 5.32202C70.5038 5.03949 70.4701 4.74051 70.4991 4.44429ZM73.86 4.44429C73.86 3.46822 73.4179 2.89742 72.6419 2.89742C71.863 2.89742 71.4248 3.46822 71.4248 4.4443C71.4248 5.42819 71.863 5.99459 72.6419 5.99459C73.4179 5.99458 73.86 5.42427 73.86 4.44429Z" fill="white"/>
<path d="M75.984 2.19487H76.8466V2.9102H76.9136C77.0272 2.65328 77.2188 2.43791 77.4617 2.2941C77.7045 2.15029 77.9866 2.08522 78.2686 2.10795C78.4895 2.09147 78.7113 2.12451 78.9176 2.20461C79.124 2.2847 79.3094 2.40981 79.4604 2.57065C79.6113 2.73149 79.7238 2.92396 79.7896 3.13378C79.8553 3.3436 79.8726 3.5654 79.8402 3.78275V6.69775H78.9441V4.00591C78.9441 3.28228 78.627 2.92241 77.9643 2.92241C77.8143 2.91548 77.6645 2.9408 77.5253 2.99663C77.3861 3.05246 77.2607 3.13748 77.1578 3.24587C77.0548 3.35425 76.9767 3.48343 76.9287 3.62457C76.8808 3.7657 76.8642 3.91544 76.8801 4.06352V6.6978H75.984V2.19487Z" fill="white"/>
<path d="M84.9037 1.07373V2.21533H85.8874V2.96387H84.9037V5.2793C84.9037 5.75098 85.0996 5.95752 85.5457 5.95752C85.6599 5.95716 85.774 5.95031 85.8874 5.93701V6.67724C85.7265 6.70579 85.5634 6.72098 85.4 6.72265C84.4034 6.72265 84.0066 6.37499 84.0066 5.50683V2.96383H83.2858V2.21529H84.0066V1.07373H84.9037Z" fill="white"/>
<path d="M87.1113 0.437012H87.9996V2.91846H88.0704C88.1896 2.65914 88.3864 2.44255 88.6342 2.2982C88.8819 2.15386 89.1685 2.08877 89.4549 2.11182C89.6747 2.09996 89.8944 2.13635 90.0984 2.21839C90.3024 2.30043 90.4856 2.42611 90.6349 2.58645C90.7843 2.74678 90.8961 2.93783 90.9624 3.14597C91.0288 3.3541 91.048 3.57419 91.0187 3.79053V6.69776H90.1217V4.00976C90.1217 3.29052 89.7839 2.92626 89.1507 2.92626C88.9967 2.91374 88.8418 2.93473 88.6968 2.98779C88.5518 3.04084 88.4203 3.12467 88.3114 3.23341C88.2025 3.34214 88.1189 3.47316 88.0664 3.6173C88.0139 3.76144 87.9938 3.91521 88.0075 4.06786V6.69774H87.1114L87.1113 0.437012Z" fill="white"/>
<path d="M96.2436 5.48201C96.1219 5.89355 95.8581 6.24953 95.4984 6.48768C95.1387 6.72583 94.7061 6.83098 94.2761 6.78474C93.977 6.79257 93.6797 6.73575 93.4049 6.61822C93.1301 6.50069 92.8844 6.32527 92.6849 6.10413C92.4853 5.88299 92.3367 5.62144 92.2493 5.33761C92.1618 5.05379 92.1378 4.75451 92.1787 4.46053C92.1388 4.16564 92.1633 3.86571 92.2506 3.58104C92.3378 3.29636 92.4856 3.0336 92.6841 2.81052C92.8827 2.58745 93.1272 2.40928 93.4012 2.28807C93.6751 2.16686 93.9722 2.10545 94.2722 2.10799C95.5356 2.10799 96.2978 2.96399 96.2978 4.37799V4.68808H93.0915V4.73788C93.0775 4.90312 93.0984 5.06945 93.153 5.2262C93.2076 5.38295 93.2946 5.52666 93.4084 5.64812C93.5223 5.76957 93.6605 5.86609 93.8141 5.93149C93.9678 5.99689 94.1335 6.02972 94.3007 6.02788C94.5151 6.05339 94.7323 6.01512 94.9246 5.91791C95.117 5.8207 95.2758 5.66896 95.381 5.48198L96.2436 5.48201ZM93.0915 4.03084H95.3849C95.3962 3.87971 95.3755 3.72791 95.3241 3.58519C95.2727 3.44247 95.1918 3.31199 95.0865 3.20213C94.9813 3.09228 94.854 3.00547 94.7129 2.9473C94.5718 2.88912 94.42 2.86086 94.2672 2.86434C94.1123 2.8624 93.9584 2.89126 93.8149 2.94921C93.6713 3.00715 93.5409 3.09301 93.4313 3.20172C93.3218 3.31044 93.2353 3.4398 93.1769 3.5822C93.1185 3.7246 93.0895 3.87714 93.0915 4.03084H93.0915Z" fill="white"/>
</svg>
